<?xml version="1.0" encoding="UTF-8"?>
<svg id="Layer_1" data-name="Layer 1" xmlns="http://www.w3.org/2000/svg" xmlns:xlink="http://www.w3.org/1999/xlink" viewBox="0 0 64 64">
  <defs>
    <style>
      .cls-1 {
        fill: none;
      }

      .cls-1, .cls-2, .cls-3, .cls-4, .cls-5 {
        stroke-width: 0px;
      }

      .cls-2 {
        fill: url(#New_Pattern_Swatch_1);
      }

      .cls-3 {
        fill: #000;
      }

      .cls-4 {
        fill: #e82e21;
      }

      .cls-5 {
        fill: #fff;
      }
    </style>
    <pattern id="New_Pattern_Swatch_1" data-name="New Pattern Swatch 1" x="0" y="0" width="155.11" height="155.11" patternUnits="userSpaceOnUse" viewBox="0 0 155.11 155.11">
      <g>
        <rect class="cls-1" width="155.11" height="155.11"/>
        <rect class="cls-4" width="155.11" height="155.11"/>
      </g>
    </pattern>
  </defs>
  <rect class="cls-5" width="64" height="64" rx="8.55" ry="8.55"/>
  <g>
    <path class="cls-3" d="M43.48,10.49c-.77-.12-1.53-.24-2.3-.34-.1-.01-.21.07-.31.11.07.08.12.19.21.23,1.39.58,2.78,1.14,4.17,1.72.6.25,1.2.51,1.8.77s1.1.43,1.54.92c.17.19.29.41.11.65-.32.41-.83.24-1.22.06-1.56-.72-3.16-1.38-4.74-2.06-1.25-.54-2.52-1.02-3.77-1.55-.85-.35-1.72-.81-2.61-1.12-.61-.21-1.46-.31-1.76-.98-.18-.41.03-.86.39-1.09.6-.37,1.34-.3,2.01-.32.79-.03,1.59-.18,2.37-.28,1.32-.17,2.64-.32,3.96-.39.91-.04,1.81-.14,2.71-.27.52-.08,1.04-.21,1.58-.2.33,0,1.74.23,1.15.85-.62.65-1.7.6-2.53.63-.82.04-1.64.12-2.45.2-.75.08-1.49.12-2.21.34-.13.04-.3.07-.4.16.48.34,1.17.32,1.74.41.73.11,1.47.22,2.2.33.63.09,1.05.11,1.43.7.04.07.09.14.09.23.01.11-.05.23-.13.31-.17.18-.47.34-.73.31-.77-.09-1.53-.22-2.3-.34Z"/>
    <path class="cls-3" d="M50.09,11.54c-.41-.05-.82-.11-1.2-.24-.41-.14-.9-.52-.86-1,.03-.31.36-.51.65-.47.65.09,1.34.2,2,.31.35.05.71.11,1.07.16.25.03.76-.01.91.23.18.28-.04.76-.26.96-.44.38-1.09.28-1.61.17-.23-.05-.46-.08-.7-.11Z"/>
    <path class="cls-3" d="M51.02,7.34c-.58-.05-.99-.24-.94-.69,0-.09.14-.18.24-.23,1.26-.56,2.58-.7,3.93-.44.18.03.46.37.42.49-.06.22-.31.51-.51.54-.44.07-2.08.43-3.14.33Z"/>
    <path class="cls-3" d="M52.56,16.53c-.65.04-1.26-.44-1.86-.61-.27-.08-.57-.22-.67-.48-.11-.28.03-.68.27-.87.31-.24,1.06.15,1.38.27.48.19.94.43,1.34.77.49.42.11.88-.44.92Z"/>
    <path class="cls-3" d="M55.12,12.16c-.55.05-1.29-.34-1.04-.85.18-.37.49-.61.98-.53.59.09.92.74.47,1.2-.1.11-.25.16-.42.18Z"/>
    <path class="cls-3" d="M28.34,37.52c.13-.78.42-1.62.83-1.87,1.78-1.04,2.01,4.28-.09,3.88-.36-.07-.67-.36-.77-.72-.07-.28-.06-.77.02-1.29Z"/>
    <g>
      <path class="cls-3" d="M33.64,52.57c.74.81,1,1.75.8,2.87-.16.92-.64,1.53-1.29,2.13-1.4,1.3-3.14,1.84-4.89,2.29-1.06.27-2.2.3-3.31.36-1.49.08-3-.11-4.5-.19-2.63-.47-5.27-1.27-8-2.79-1.65-.92-3.1-2.17-3.89-4.09-.7-1.69-.14-3.03,1.04-3.88,1.23-.9,1.49-1.96,1.68-3.28,1.22-8.33,2.48-16.65,3.76-24.96.13-.81.13-1.5-.5-2.1-.65-.62-.82-1.53-.97-2.31-.29-1.44,1.28-3.21,2.57-3.63,1.04-.34,1.62-1.1,2.51-1.7,1.64-1.1,3.51-2.04,5.25-3.04.77-.44.71-.94.89-1.75.15-.67.44-1.31.86-1.86.9-1.18,2.98-.94,4.2-.54.68.22,1.38.58,1.84,1.15.72.91.39,2.25.33,3.3-.05.79.24.87.8,1.41.85.83,1.63,1.72,2.46,2.57.72.74,1.28,1.44,1.79,2.33.55.97,1.43,1.74,2.15,2.6.92,1.1.8,2.52.09,3.69-.34.57-.8,1.1-1.33,1.51-.43.34-.91.45-.98,1.06-.43,4.29-1.27,8.58-1.91,12.85-.68,4.53-1.37,9.06-2.07,13.58-.15.95-.04,1.71.62,2.42ZM32.45,55.83c.14-.13.21-.45.16-.65-.03-.15-.37-.39-.44-.35-.46.25-.85.69-1.33.85-2.57.82-5.17,1.5-7.92,1.01-1.52-.27-3.07-.42-4.59-.72-1-.2-2.02-.46-2.92-.9-1.23-.59-2.4-1.31-3.45-2.18-.28-.23-1.18-1.31-1.46-1.19-.5.22-.13,1.34.1,1.61.97,1.11,2.14,2.05,3.4,2.67,1.03.51,2.21.91,3.36,1.24,1.1.32,2.3.81,3.44.88.63.04,1.23-.02,1.89.02.6.04,1.18.17,1.78.18,1.43.03,2.84-.2,4.24-.44,1.4-.24,2.65-1.08,3.74-2.04ZM37.89,20.18c.08-.19.01-.45.01-.67-.21,0-.47-.07-.61.03-2.12,1.54-4.81,1.94-7.38,1.85-1.3-.05-2.59-.22-3.87-.46-.63-.12-1.22-.2-1.85-.25-1.46-.12-3.02-.86-4.34-1.47-1.38-.64-2.59-1.66-3.66-2.72-.11-.11-.23-.2-.34-.3-.06.15-.12.31-.19.47-.3.69.12,1.22.56,1.55.76.56,1.39,1.27,2.16,1.81.69.48,1.6.87,2.39,1.19.3.12.61.23.91.34.28.11.55.24.85.33.86.25,1.74.28,2.61.54.3.09.59.16.89.21,1.64.3,3.25.13,4.94.14,2.39.01,4.58-.55,6.46-2.08.17-.14.38-.29.46-.49ZM29.85,54.67c.62-.19.78-.45.87-1.02.7-4.79,1.43-9.57,2.15-14.35l.51-3.37c.57-3.78,1.14-7.56,1.7-11.34.07-.51-.08-.63-.57-.48-.42.13-.84.42-1.25.4-.52-.03-.72.04-.79.59-.15,1.14-.32,2.28-.49,3.42-.19,1.26-.1,2.8-.86,3.92-1.05,1.53-1.86-.1-1.73-1.3.2-1.78.57-3.57.83-5.35.15-1.03.13-1.2-.94-1.08-1.19.13-2.3-.05-3.45-.2-.59-.08-1.18-.16-1.77-.27-.4-.07-.52.09-.55.46-.04.42-.12.83-.18,1.24-.91,6.02-1.81,12.05-2.72,18.07-.07.45-.13.94-.34,1.34-.22.41-.46.92-1.17.64-.58-.23-.84-.48-.78-1.12.03-.36.1-.71.16-1.06.52-3.45,1.04-6.9,1.56-10.35.26-1.73.52-3.45.78-5.18l.39-2.59c.08-.54.46-1.63.13-2.12-.12-.18-.31-.28-.5-.38-.16-.08-.34-.16-.52-.12-.42.11-.43,1.77-.48,2.12-.14.95-.28,1.9-.43,2.86-.16,1.01-1.52,1.53-1.72.24-.21-1.38.27-2.63.47-3.97.09-.61.49-1.73.14-2.29-.19-.3-.54-.48-.89-.46-.08,0-.17.02-.24.07-.25.18-.17.8-.2,1.08-.07.61-.19,1.21-.28,1.82-.18,1.2-.36,2.4-.55,3.61-.36,2.4-.73,4.81-1.09,7.21-.73,4.81-1.45,9.62-2.17,14.43-.1.65-.44,1.71-.03,2.31.13.2.34.33.54.45,2.57,1.51,5.71,2.68,8.68,2.94.61.05,1.25-.14,1.85-.06,2.06.29,4-.12,5.95-.73ZM35.96,18.65c.44-1.57-.55-3.16-1.6-4.4-.19-.23-.41-.46-.69-.54-.45-.12-.88.18-1.32.33s-1.09-.02-1.07-.49c0-.11.06-.21.12-.3.38-.5,1.29-.48,1.48-1.07.18-.55-.51-1.05-1.09-.98-.58.07-1.06.46-1.59.69-1.42.63-3.07.13-4.52-.41-.37-.14-.76-.29-1.02-.6-.29-.35-.41-.91-.84-1.07-.55-.2-1.08.51-.93,1.08.15.57.69.93,1.21,1.2.99.5,2.05.85,3.14,1.04.38.07.76.12,1.14.16.44.04,1,.18,1.04.61.05.48-.59.7-1.07.71-2.08.04-4.16-.7-5.75-2.04-.32-.27-.64-.57-1.05-.68-.67-.17-1.33.25-1.84.72-.57.52-1.05,1.14-1.43,1.81-.98,1.74.14,2.51,1.59,3.26,1.56.81,3.23,1.41,4.95,1.8,3.43.79,7.06.74,10.45-.22.18-.05.37-.11.5-.25.1-.1.14-.24.18-.37ZM29.19,10.86c.79-.11,1.74-.44,1.42-1.31-.23-.61.11-1.1.14-1.7.05-1.01-.24-1.47-1.16-1.62-.35-.06-.71-.11-1.06-.16-.52-.08-1.89-.58-2.2.05-.08.17-.09.36-.12.54-.14,1.08-.71,1.88-.79,2.99,0,.11.16.27.28.34.66.39,2.74.97,3.49.87Z"/>
      <path class="cls-2" d="M32.62,55.19c.04.2-.02.52-.16.65-1.09.96-2.34,1.8-3.74,2.04-1.4.24-2.82.48-4.24.44-.6-.02-1.19-.14-1.78-.18-.67-.04-1.27.02-1.89-.02-1.14-.08-2.34-.56-3.44-.88-1.14-.33-2.32-.73-3.36-1.24-1.26-.63-2.43-1.56-3.4-2.67-.23-.26-.6-1.39-.1-1.61.28-.12,1.19.96,1.46,1.19,1.05.87,2.22,1.59,3.45,2.18.91.44,1.93.7,2.92.9,1.52.3,3.07.45,4.59.72,2.75.49,5.35-.19,7.92-1.01.48-.15.87-.59,1.33-.85.07-.04.41.2.44.35Z"/>
      <path class="cls-2" d="M37.91,19.51c0,.23.07.48-.01.67-.08.2-.29.35-.46.49-1.88,1.54-4.07,2.1-6.46,2.08-1.69,0-3.3.16-4.94-.14-.3-.05-.59-.12-.89-.21-.87-.26-1.75-.29-2.61-.54-.29-.09-.57-.22-.85-.33-.3-.12-.61-.22-.91-.34-.78-.33-1.69-.71-2.39-1.19-.77-.54-1.41-1.25-2.16-1.81-.44-.32-.86-.85-.56-1.55.07-.15.12-.31.19-.47.11.1.23.2.34.3,1.07,1.06,2.28,2.08,3.66,2.72,1.32.61,2.88,1.35,4.34,1.47.64.05,1.22.14,1.85.25,1.28.23,2.57.41,3.87.46,2.57.1,5.26-.3,7.38-1.85.14-.1.4-.03.61-.03Z"/>
      <path class="cls-2" d="M30.72,53.65c-.08.57-.25.83-.87,1.02-1.95.61-3.9,1.02-5.95.73-.6-.08-1.24.11-1.85.06-2.97-.26-6.11-1.44-8.68-2.94-.2-.12-.41-.25-.54-.45-.41-.6-.07-1.66.03-2.31.72-4.81,1.45-9.62,2.17-14.43.36-2.4.73-4.81,1.09-7.21.18-1.2.36-2.4.55-3.61.09-.6.21-1.21.28-1.82.03-.28-.05-.9.2-1.08.07-.05.15-.07.24-.07.35-.02.71.16.89.46.36.56-.05,1.68-.14,2.29-.2,1.35-.68,2.59-.47,3.97.2,1.29,1.56.77,1.72-.24.15-.95.29-1.9.43-2.86.05-.36.06-2.01.48-2.12.18-.04.36.04.52.12.19.1.38.2.5.38.33.49-.05,1.59-.13,2.12l-.39,2.59c-.26,1.73-.52,3.45-.78,5.18-.52,3.45-1.04,6.9-1.56,10.35-.05.35-.12.71-.16,1.06-.06.64.2.89.78,1.12.71.28.95-.23,1.17-.64.21-.4.27-.88.34-1.34.91-6.02,1.82-12.05,2.72-18.07.06-.41.14-.83.18-1.24.03-.36.16-.53.55-.46.58.11,1.18.19,1.77.27,1.14.15,2.26.33,3.45.2,1.07-.12,1.09.05.94,1.08-.26,1.78-.64,3.57-.83,5.35-.13,1.2.68,2.83,1.73,1.3.77-1.12.67-2.66.86-3.92.17-1.14.34-2.28.49-3.42.07-.55.28-.62.79-.59.41.02.83-.26,1.25-.4.49-.15.64-.03.57.48-.56,3.78-1.14,7.56-1.7,11.34l-.51,3.37c-.72,4.78-1.45,9.57-2.15,14.35Z"/>
      <path class="cls-2" d="M34.36,14.25c1.05,1.24,2.04,2.83,1.6,4.4-.04.13-.09.27-.18.37-.13.14-.32.2-.5.25-3.39.96-7.02,1.01-10.45.22-1.72-.39-3.38-1-4.95-1.8-1.45-.75-2.57-1.52-1.59-3.26.38-.67.86-1.29,1.43-1.81.5-.47,1.17-.89,1.84-.72.41.1.73.41,1.05.68,1.59,1.34,3.67,2.08,5.75,2.04.48,0,1.11-.22,1.07-.71-.04-.44-.61-.57-1.04-.61-.38-.04-.76-.09-1.14-.16-1.09-.2-2.16-.54-3.14-1.04-.52-.27-1.06-.63-1.21-1.2-.15-.57.38-1.28.93-1.08.43.16.54.71.84,1.07.26.31.64.46,1.02.6,1.46.54,3.1,1.04,4.52.41.53-.23,1.01-.62,1.59-.69.58-.07,1.27.43,1.09.98-.2.59-1.11.57-1.48,1.07-.07.09-.11.19-.12.3-.02.46.63.63,1.07.49s.88-.45,1.32-.33c.29.07.5.31.69.54ZM22.52,14.29c.11-.16.13-.57.02-.65-.2-.16-.63-.32-.78-.21-.7.5-1.41,1.05-1.96,1.72-.08.1-.16.2-.17.33-.03.2.11.38.28.48.17.09.31.13.42.13.41,0,.58-.46.97-.78.41-.34.9-.56,1.21-1.01Z"/>
      <path class="cls-3" d="M22.54,13.64c.1.08.09.49-.02.65-.31.44-.81.67-1.21,1.01-.39.33-.56.79-.97.78-.12,0-.26-.04-.42-.13-.17-.1-.31-.28-.28-.48.02-.12.1-.23.17-.33.55-.67,1.26-1.22,1.96-1.72.15-.11.58.05.78.21Z"/>
    </g>
    <path class="cls-3" d="M29.25,9.08c-.48-.09-.79-.51-.72-1,.07-.48.48-.82.96-.78.6.05.93.51.8,1.1-.11.47-.56.76-1.04.67Z"/>
  </g>
</svg>